#!OML:ASF E:\emotionWalksFemale\Project 1\Capture day 1\Session 1\Female1.ASF
:FULLY-SPECIFIED
:DEGREES
2159
root 10.0278 15.4372 -16.2363 -177.885 -175.298 -183.051
lowerback 0.667682 6.58372 5.92732
upperback -6.70038 9.04969 -0.89058
thorax -6.33951 4.13596 -4.67622
lowerneck 0.825858 -6.92135 -12.3587
upperneck 2.91013 -9.66169 12.268
head 1.92829 -4.84239 5.47885
rclavicle -8.27938e-014 -1.59028e-014
rhumerus -45.3902 6.1036 -90.8397
rradius 33.714
rwrist 17.0551
rhand 3.12653 -54.4024
rfingers 7.12502
rthumb 28.5815 997.763
lclavicle -8.27938e-014 -1.59028e-014
lhumerus -51.2289 9.97751 70.5909
lradius 34.4882
lwrist -15.0089
lhand -1.02698 -31.3314
lfingers 7.12502
lthumb 24.6063 -2.89293
rfemur 25.0471 0.314926 35.1564
rtibia 6.67916e-014
rfoot 1.56752 -19.9998
rtoes -6.51914
lfemur -24.7882 -18.3425 -20.5628
ltibia 26.2014
lfoot -17.8305 23.1029
ltoes 5.07872
2160
root 10.0335 15.4471 -16.1149 -178.129 -175.203 -182.934
lowerback 0.774719 6.65934 6.04088
upperback -6.72246 9.15791 -1.00695
thorax -6.37706 4.1775 -4.87524
lowerneck 0.941048 -6.94024 -12.3576
upperneck 2.90025 -9.70178 12.3245
head 1.91419 -4.86559 5.49875
rclavicle 1.69961e-014 2.90226e-014
rhumerus -45.6349 6.04518 -90.9731
rradius 34.1693
rwrist 15.9202
rhand 3.6468 -56.1989
rfingers 7.12502
rthumb 29.0784 996.051
lclavicle 1.69961e-014 2.90226e-014
lhumerus -51.3673 10.0981 70.1225
lradius 34.6245
lwrist -15.3164
lhand -1.49684 -30.8865
lfingers 7.12502
lthumb 24.1559 -2.3875
rfemur 25.6381 0.250811 34.8397
rtibia 9.54166e-015
rfoot 2.77532 -19.637
rtoes -7.99011
lfemur -24.063 -18.0038 -21.0498
ltibia 26.3869
lfoot -17.837 22.7419
ltoes 5.44609
2161
root 10.0357 15.4592 -16.0014 -178.177 -175.282 -182.821
lowerback 0.741956 6.67704 6.05056
upperback -6.77032 9.17713 -1.0887
thorax -6.39286 4.18265 -4.96461
lowerneck 0.942768 -6.96436 -12.3404
upperneck 3.02135 -9.7421 12.277
head 1.95119 -4.8858 5.47751
rclavicle -4.34344e-014 2.78299e-015
rhumerus -45.874 5.9087 -90.8853
rradius 33.869
rwrist 16.9034
rhand 3.01702 -54.7282
rfingers 7.12502
rthumb 28.4768 997.419
lclavicle -4.34344e-014 2.78299e-015
lhumerus -51.6728 9.93846 69.9178
lradius 35.1843
lwrist -15.1099
lhand -4.02599 -29.6908
lfingers 7.12502
lthumb 21.729 -0.890311
rfemur 25.7874 0.0658221 34.5307
rtibia 0.398518
rfoot 3.48167 -19.3241
rtoes -7.12738
lfemur -23.5733 -17.4075 -21.4916
ltibia 26.4966
lfoot -17.6577 21.9442
ltoes 5.79938
2162
root 10.0411 15.4699 -15.8893 -178.195 -175.325 -182.721
lowerback 0.695126 6.69851 6.08481
upperback -6.80536 9.20153 -1.15913
thorax -6.38445 4.19075 -5.05238
lowerneck 0.812194 -6.97742 -12.4009
upperneck 3.3021 -9.7689 12.3018
head 2.06251 -4.89473 5.48393
rclavicle -6.06293e-015 1.98785e-015
rhumerus -46.0379 5.99133 -90.9501
rradius 34.6402
rwrist 15.1849
rhand 3.78689 -57.0244
rfingers 7.12502
rthumb 29.2122 995.249
lclavicle -6.06293e-015 1.98785e-015
lhumerus -51.5363 10.629 69.1572
lradius 34.582
lwrist -15.2322
lhand -0.714808 -28.6883
lfingers 7.12502
lthumb 24.9055 -0.290915
rfemur 23.6832 -0.137728 34.2248
rtibia 5.19163
rfoot 1.90693 -19.1054
rtoes -5.74038
lfemur -23.0826 -16.9093 -21.8838
ltibia 26.4945
lfoot -17.5312 21.1002
ltoes 7.70037
2163
root 10.047 15.479 -15.7797 -178.265 -175.418 -182.597
lowerback 0.806305 6.69718 6.10989
upperback -6.88047 9.20791 -1.23975
thorax -6.51182 4.18219 -5.17136
lowerneck 0.763595 -6.99652 -12.3742
upperneck 3.4913 -9.80193 12.2476
head 2.12609 -4.90952 5.45651
rclavicle -5.01931e-014 -1.59028e-014
rhumerus -46.3301 6.12867 -91.0379
rradius 35.0189
rwrist 14.5226
rhand 4.07422 -57.8513
rfingers 7.12502
rthumb 29.4866 994.47
lclavicle -5.01931e-014 -1.59028e-014
lhumerus -51.5732 10.7221 68.8427
lradius 34.4957
lwrist -14.7211
lhand -0.691231 -29.3763
lfingers 7.12502
lthumb 24.9281 -0.98206
rfemur 22.7773 -0.371052 33.8817
rtibia 7.65422
rfoot 1.63845 -18.8697
rtoes -4.63051
lfemur -22.5582 -16.4429 -22.3216
ltibia 26.455
lfoot -17.0764 20.5316
ltoes 7.12426
2164
root 10.0501 15.4914 -15.6662 -178.315 -175.445 -182.436
lowerback 0.853579 6.71387 6.07833
upperback -6.92272 9.22854 -1.33759
thorax -6.57046 4.1876 -5.26647
lowerneck 0.645804 -7.01578 -12.3285
upperneck 3.53511 -9.81852 12.2326
head 2.15745 -4.91338 5.43838
rclavicle -6.88789e-014 -2.70347e-014
rhumerus -46.5301 6.25953 -91.0941
rradius 34.9885
rwrist 14.8582
rhand 3.97962 -57.2811
rfingers 7.12502
rthumb 29.3962 995.024
lclavicle -6.88789e-014 -2.70347e-014
lhumerus -51.5583 10.6669 68.7012
lradius 34.6407
lwrist -14.2712
lhand -2.58332 -31.6422
lfingers 7.12502
lthumb 23.1138 -3.00861
rfemur 22.0497 -0.528547 33.4819
rtibia 9.71529
rfoot 1.60277 -18.519
rtoes -3.82361
lfemur -22.0161 -15.9259 -22.7923
ltibia 26.4158
lfoot -16.3735 20.192
ltoes 4.42944
2165
root 10.0524 15.5039 -15.5515 -178.379 -175.417 -182.322
lowerback 0.807474 6.74443 6.04617
upperback -6.92962 9.26114 -1.40063
thorax -6.54148 4.20525 -5.30916
lowerneck 0.484612 -7.03353 -12.3293
upperneck 3.67126 -9.83731 12.2529
head 2.22742 -4.91682 5.43537
rclavicle 1.14102e-013 2.26615e-014
rhumerus -46.7032 6.31813 -91.0452
rradius 34.6539
rwrist 16.2133
rhand 3.20569 -54.7486
rfingers 7.12502
rthumb 28.6571 997.429
lclavicle 1.14102e-013 2.26615e-014
lhumerus -51.6222 10.6623 68.4488
lradius 34.8211
lwrist -13.8882
lhand -3.5428 -33.3686
lfingers 7.12502
lthumb 22.1929 -4.6226
rfemur 21.3855 -0.633377 33.1135
rtibia 11.6656
rfoot 1.71878 -18.1965
rtoes -4.31833
lfemur -21.4136 -15.4597 -23.191
ltibia 26.3471
lfoot -15.8359 19.8028
ltoes 2.7916
2166
root 10.0584 15.5126 -15.4369 -178.538 -175.404 -182.256
lowerback 0.801088 6.75821 6.09335
upperback -6.90853 9.27858 -1.42852
thorax -6.50141 4.21275 -5.36046
lowerneck 0.303565 -7.05519 -12.2957
upperneck 3.97763 -9.86868 12.1933
head 2.3465 -4.92605 5.3984
rclavicle -6.85807e-015 -1.47101e-014
rhumerus -46.909 6.46602 -91.0995
rradius 35.3635
rwrist 15.2076
rhand 3.96368 -56.1769
rfingers 7.12502
rthumb 29.381 996.125
lclavicle -6.85807e-015 -1.47101e-014
lhumerus -51.6566 10.8715 68.0993
lradius 34.8716
lwrist -13.6542
lhand -6.16381 -24.766
lfingers 7.12502
lthumb 19.6749 4.25834
rfemur 20.846 -1.15113 32.6121
rtibia 13.5885
rfoot 2.08907 -17.4552
rtoes -5.03846
lfemur -20.699 -15.1616 -23.5495
ltibia 26.2321
lfoot -15.6335 19.5765
ltoes 1.95718
2167
root 10.0674 15.5186 -15.323 -178.697 -175.372 -182.089
lowerback 0.795953 6.77151 6.09332
upperback -6.85666 9.29038 -1.48669
thorax -6.43118 4.22149 -5.41508
lowerneck 0.189277 -7.06517 -12.2163
upperneck 4.09506 -9.87569 12.1131
head 2.39276 -4.92552 5.35451
rclavicle -4.02539e-014 0
rhumerus -47.1043 6.51688 -91.0136
rradius 35.2299
rwrist 16.1053
rhand 3.23947 -54.3328
rfingers 7.12502
rthumb 28.6894 997.85
lclavicle -4.02539e-014 0
lhumerus -51.5377 11.1019 67.9278
lradius 34.8844
lwrist -13.5065
lhand -3.85775 -30.5896
lfingers 7.12502
lthumb 21.8906 -1.80792
rfemur 20.3062 -1.81621 31.8818
rtibia 15.543
rfoot 2.70662 -16.3983
rtoes -3.5108
lfemur -19.9566 -14.9317 -24.018
ltibia 26.0779
lfoot -15.6768 19.4665
ltoes 2.31461
2168
root 10.075 15.5273 -15.2116 -178.77 -175.376 -181.857
lowerback 0.822791 6.7644 6.03447
upperback -6.84731 9.27531 -1.56498
thorax -6.43387 4.21511 -5.46723
lowerneck 0.412387 -6.93463 -12.3085
upperneck 3.45019 -9.68366 12.3545
head 2.15926 -4.8369 5.47223
rclavicle -5.52621e-014 1.82882e-014
rhumerus -47.2528 6.70308 -91.0061
rradius 35.6283
rwrist 15.6729
rhand 3.17797 -54.504
rfingers 7.12502
rthumb 28.6306 997.669
lclavicle -5.52621e-014 1.82882e-014
lhumerus -51.455 11.2026 67.8633
lradius 34.9938
lwrist -13.3371
lhand -3.36933 -32.8549
lfingers 7.12502
lthumb 22.3595 -4.12884
rfemur 19.5942 -2.4939 31.0899
rtibia 17.6038
rfoot 3.37995 -15.4281
rtoes -2.00994
lfemur -19.302 -14.6615 -24.5225
ltibia 25.8841
lfoot -15.7073 19.1885
ltoes 3.9801
2169
root 10.0816 15.5378 -15.0994 -178.849 -175.25 -181.685
lowerback 0.98235 6.76703 6.02432
upperback -6.8843 9.28767 -1.62415
thorax -6.55553 4.21273 -5.54951
lowerneck 0.393922 -6.95518 -12.3783
upperneck 3.65824 -9.72381 12.3185
head 2.22998 -4.85721 5.46634
rclavicle -6.79844e-014 -1.59028e-014
rhumerus -47.3984 6.94828 -91.057
rradius 35.8911
rwrist 15.5624
rhand 3.31434 -54.4535
rfingers 7.12502
rthumb 28.7609 997.742
lclavicle -6.79844e-014 -1.59028e-014
lhumerus -51.4625 11.2642 67.7212
lradius 35.149
lwrist -13.0231
lhand -3.16565 -33.6606
lfingers 7.12502
lthumb 22.555 -4.95808
rfemur 18.792 -3.07449 30.3234
rtibia 19.7695
rfoot 4.11699 -14.4744
rtoes -1.55816
lfemur -18.6246 -14.4485 -24.9344
ltibia 25.6414
lfoot -15.6517 19.0752
ltoes 5.06196
2170
root 10.0903 15.547 -14.9911 -178.965 -174.983 -181.538
lowerback 1.14387 6.78944 6.01408
upperback -6.88423 9.32852 -1.61827
thorax -6.64538 4.22851 -5.56211
lowerneck 0.337513 -6.87725 -12.4891
upperneck 3.68274 -9.61401 12.3381
head 2.23897 -4.802 5.49363
rclavicle 3.61788e-014 1.03368e-014
rhumerus -47.494 7.26974 -91.0628
rradius 36.1701
rwrist 15.3767
rhand 3.24298 -54.529
rfingers 7.12502
rthumb 28.6927 997.655
lclavicle 3.61788e-014 1.03368e-014
lhumerus -51.5245 11.2545 67.7633
lradius 35.4396
lwrist -12.6311
lhand -3.01263 -33.3466
lfingers 7.12502
lthumb 22.7018 -4.66198
rfemur 17.9917 -3.61513 29.4834
rtibia 21.9556
rfoot 4.84038 -13.4286
rtoes -0.229824
lfemur -17.8889 -14.2573 -25.3237
ltibia 25.3799
lfoot -15.7068 19.1729
ltoes 4.83841
2171
root 10.0991 15.5554 -14.886 -179.057 -174.85 -181.371
lowerback 1.24203 6.76611 5.97762
upperback -6.84559 9.30169 -1.59839
thorax -6.67199 4.21681 -5.532
lowerneck 0.251769 -6.84489 -12.6641
upperneck 3.6863 -9.56012 12.3534
head 2.25657 -4.77459 5.52586
rclavicle 7.62339e-014 1.31198e-014
rhumerus -47.5446 7.6255 -91.0057
rradius 36.5742
rwrist 15.0442
rhand 3.03134 -54.486
rfingers 7.12502
rthumb 28.4905 997.664
lclavicle 7.62339e-014 1.31198e-014
lhumerus -51.6055 11.1615 67.9693
lradius 35.843
lwrist -12.3392
lhand -3.3919 -32.7302
lfingers 7.12502
lthumb 22.3378 -4.00155
rfemur 17.1477 -4.23968 28.6308
rtibia 24.1518
rfoot 5.4843 -12.4449
rtoes 1.09586
lfemur -17.1791 -13.9977 -25.7562
ltibia 25.1128
lfoot -15.7657 19.1614
ltoes 3.67594
